TITLE "Samination - Mix 45 - I cant get a Lovely Magenta Rave Rocker Girl"
PERFORMER "Various Artists"
FILE "samination_mix45-magenta_rave_rocker_girl.ogg" WAVE
	TRACK 01 AUDIO
		TITLE "Bouna Fortuna"
		PERFORMER "DJ Emg"
		INDEX 01 00:00:00
	TRACK 02 AUDIO
		TITLE "Musika Agresiva"
		PERFORMER "Xavi BCN"
		INDEX 01 03:07:40
	TRACK 03 AUDIO
		TITLE "Blanc De Bleu"
		PERFORMER "mzet:-P"
		INDEX 01 06:58:00
	TRACK 04 AUDIO
		TITLE "Burn the Floor"
		PERFORMER "M-Project"
		INDEX 01 11:49:00
	TRACK 05 AUDIO
		TITLE "Lovely Magenta Girl"
		PERFORMER "3034 aka SANY ON"
		INDEX 01 15:22:00
	TRACK 06 AUDIO
		TITLE "Rave Rocker"
		PERFORMER "Cruze & Breaks ft MC Frikshon"
		INDEX 01 19:10:20
	TRACK 07 AUDIO
		TITLE "Can You Hear The Silence"
		PERFORMER "Entity"
		INDEX 01 22:38:00
	TRACK 08 AUDIO
		TITLE "Radio Rockin 2010"
		PERFORMER "Brisk & Fracus"
		INDEX 01 26:06:00
	TRACK 09 AUDIO
		TITLE "Lucia"
		PERFORMER "DJ Noriken"
		INDEX 01 30:18:30
	TRACK 10 AUDIO
		TITLE "The Oboe Dawn"
		PERFORMER "Darwin"
		INDEX 01 35:20:00
	TRACK 11 AUDIO
		TITLE "3 To The Floor (Damaged remix)"
		PERFORMER "S3rl"
		INDEX 01 39:32:00
	TRACK 12 AUDIO
		TITLE "Second Wave (Pulse remix)"
		PERFORMER "S3rl"
		INDEX 01 43:35:60
	TRACK 13 AUDIO
		TITLE "Sax Lab"
		PERFORMER "DJ Smile"
		INDEX 01 47:42:00
	TRACK 14 AUDIO
		TITLE "I Cant Get You"
		PERFORMER "Skinny & Darwin"
		INDEX 01 52:34:00
	TRACK 15 AUDIO
		TITLE "Ancient"
		PERFORMER "DJ Myosuke ft chitamo"
		INDEX 01 55:31:00
	TRACK 16 AUDIO
		TITLE "On The Edge"
		PERFORMER "Tha Playah"
		INDEX 01 59:01:00
	TRACK 17 AUDIO
		TITLE "Mr Ryan"
		PERFORMER "Distorted Revelation"
		INDEX 01 61:47:00
	TRACK 18 AUDIO
		TITLE "Choose Your Enemy"
		PERFORMER "Hellsystem"
		INDEX 01 65:04:20
	TRACK 19 AUDIO
		TITLE "Storm Cruizer"
		PERFORMER "DJ Noriken"
		INDEX 01 67:30:00
	TRACK 20 AUDIO
		TITLE "Entangle Night"
		PERFORMER "DJ Sharpnel"
		INDEX 01 71:32:00
	TRACK 21 AUDIO
		TITLE "Gate Openerz"
		PERFORMER "DJ Sharpnel"
		INDEX 01 74:44:00
